<svg width="30" height="30" viewBox="0 0 30 30" fill="none" xmlns="http://www.w3.org/2000/svg">
<path fill-rule="evenodd" clip-rule="evenodd" d="M11.8102 14.9997C11.8102 12.4895 13.0776 10.2813 14.9973 8.99532C13.8803 8.24732 12.5438 7.811 11.1059 7.811C7.19606 7.811 4.02696 11.0292 4.02696 14.9997C4.02696 18.97 7.19606 22.1885 11.1059 22.1885C12.5438 22.1885 13.8803 21.7522 14.9973 21.0046C13.0776 19.7179 11.8102 17.5099 11.8102 14.9997" fill="#1AAEC0"/>
<path fill-rule="evenodd" clip-rule="evenodd" d="M18.8884 7.81082C17.4506 7.81082 16.1143 8.24713 14.9973 8.99527C16.9163 10.2811 18.1841 12.4893 18.1841 14.9995C18.1841 17.5097 16.9163 19.7178 14.9973 21.0044C16.1143 21.7521 17.4506 22.1883 18.8884 22.1883C22.7985 22.1883 25.9673 18.97 25.9673 14.9995C25.9673 11.029 22.7985 7.81082 18.8884 7.81082" fill="#E80F8A"/>
<path fill-rule="evenodd" clip-rule="evenodd" d="M18.1842 14.9995C18.1842 12.4893 16.9164 10.2812 14.9973 8.99518C13.0776 10.2812 11.8101 12.4893 11.8101 14.9995C11.8101 17.5098 13.0776 19.7178 14.9973 21.0044C16.9164 19.7178 18.1842 17.5098 18.1842 14.9995" fill="#642A7B"/>
</svg>
