<svg width="54" height="21" viewBox="0 0 54 21" fill="none" xmlns="http://www.w3.org/2000/svg">
<path d="M16.7764 16.2393C19.2852 16.2393 20.7755 14.2773 20.7755 10.9482C20.7755 7.68066 19.1895 5.88965 16.8311 5.88965C14.6846 5.88965 13.1671 7.33203 13.1671 9.34863C13.1671 11.2422 14.5343 12.623 16.4141 12.623C17.5694 12.623 18.5059 12.0898 18.9708 11.1533H19.087C19.0665 13.4707 18.2393 14.7969 16.797 14.7969C15.9493 14.7969 15.2725 14.332 15.0606 13.5801H13.3038C13.5909 15.1865 14.9718 16.2393 16.7764 16.2393ZM16.838 11.2627C15.6895 11.2627 14.8966 10.4561 14.8966 9.29395C14.8966 8.17969 15.7305 7.3252 16.8448 7.3252C17.9591 7.3252 18.793 8.19336 18.793 9.32812C18.793 10.4492 17.9796 11.2627 16.838 11.2627ZM23.5921 9.61523C24.2416 9.61523 24.6859 9.16406 24.6859 8.55566C24.6859 7.94727 24.2416 7.49609 23.5921 7.49609C22.9496 7.49609 22.4984 7.94727 22.4984 8.55566C22.4984 9.16406 22.9496 9.61523 23.5921 9.61523ZM23.5921 14.6328C24.2416 14.6328 24.6859 14.1748 24.6859 13.5732C24.6859 12.9648 24.2416 12.5137 23.5921 12.5137C22.9496 12.5137 22.4984 12.9648 22.4984 13.5732C22.4984 14.1748 22.9496 14.6328 23.5921 14.6328ZM31.2213 16H32.9098V14.1064H34.2428V12.6504H32.9098V6.13574H30.4215C29.0817 8.17285 27.6803 10.4424 26.402 12.6641V14.1064H31.2213V16ZM28.0358 12.5889C28.9996 10.9141 30.1413 9.08887 31.153 7.54395H31.2487V12.6914H28.0358V12.5889ZM38.1669 16H39.9306V6.13574H38.1738L35.5966 7.94727V9.6084L38.0507 7.87207H38.1669V16Z" fill="black"/>
</svg>
